<?xml version="1.0" standalone="no"?>
<!DOCTYPE svg PUBLIC "-//W3C//DTD SVG 20010904//EN"
 "http://www.w3.org/TR/2001/REC-SVG-20010904/DTD/svg10.dtd">
<svg version="1.0" xmlns="http://www.w3.org/2000/svg"
 width="400.000000pt" height="400.000000pt" viewBox="0 0 400.000000 400.000000"
 preserveAspectRatio="xMidYMid meet">
<metadata>
Created by potrace 1.11, written by Peter Selinger 2001-2013
</metadata>
<g transform="translate(0.000000,400.000000) scale(0.100000,-0.100000)"
fill="#000000" stroke="none">
<path d="M1315 3805 c-33 -6 -80 -21 -103 -34 -151 -78 -281 -299 -316 -536
-4 -23 -8 -50 -10 -62 -3 -12 -6 -56 -8 -99 l-3 -78 37 -2 c44 -3 53 7 61 66
10 72 17 99 34 143 58 146 168 229 313 235 101 5 155 -19 235 -102 97 -101
169 -265 239 -546 54 -215 55 -231 13 -320 -19 -41 -49 -106 -67 -145 -18 -38
-57 -121 -86 -184 -30 -62 -54 -115 -54 -116 0 -2 -23 -52 -51 -112 -51 -107
-82 -174 -138 -295 -16 -35 -43 -92 -60 -127 -17 -36 -31 -70 -31 -78 0 -7 -4
-13 -10 -13 -5 0 -10 -6 -10 -13 0 -7 -9 -31 -19 -53 -24 -49 -94 -200 -131
-279 -15 -33 -43 -94 -63 -135 -19 -41 -49 -106 -67 -145 -67 -144 -94 -203
-146 -314 -30 -62 -54 -115 -54 -117 0 -2 -13 -31 -29 -64 l-29 -60 239 0 240
0 18 43 c10 23 28 65 41 92 12 28 28 64 35 80 7 17 25 57 40 90 27 60 115 259
247 560 105 238 108 245 139 313 16 35 29 65 29 67 0 2 16 38 35 79 19 42 35
78 35 81 0 2 13 32 29 67 29 63 46 101 86 192 l21 48 23 -103 c29 -128 26
-116 35 -164 4 -22 12 -53 16 -70 5 -16 11 -41 14 -55 4 -24 86 -399 105 -485
5 -22 14 -60 20 -85 76 -341 161 -560 251 -650 27 -27 107 -80 148 -97 166
-70 324 -43 443 78 118 119 168 266 185 546 l7 103 -45 0 c-49 0 -58 -9 -58
-58 0 -48 -42 -166 -79 -221 -69 -103 -200 -146 -322 -106 -69 23 -103 45
-162 109 -101 109 -175 305 -267 711 -17 77 -40 178 -51 225 -25 109 -148 657
-155 690 -38 184 -186 793 -214 885 -84 270 -144 397 -232 490 -78 84 -154
123 -268 140 -8 1 -42 -3 -75 -10z"/>
</g>
</svg>
